<svg width="26" height="26" viewBox="0 0 26 26" fill="none" xmlns="http://www.w3.org/2000/svg">
<path d="M22.75 14.0829H21.6667V21.6662C21.6667 22.8612 20.6949 23.8329 19.5 23.8329H6.5C5.30508 23.8329 4.33333 22.8612 4.33333 21.6662V14.0829H3.25C3.03577 14.0829 2.82636 14.0193 2.64825 13.9003C2.47014 13.7812 2.33132 13.612 2.24935 13.4141C2.16737 13.2162 2.14592 12.9984 2.1877 12.7883C2.22948 12.5782 2.33262 12.3852 2.48408 12.2337L12.2341 2.48365C12.3346 2.38296 12.454 2.30308 12.5854 2.24857C12.7168 2.19407 12.8577 2.16602 13 2.16602C13.1423 2.16602 13.2832 2.19407 13.4146 2.24857C13.546 2.30308 13.6654 2.38296 13.7659 2.48365L23.5159 12.2337C23.6674 12.3852 23.7705 12.5782 23.8123 12.7883C23.8541 12.9984 23.8326 13.2162 23.7506 13.4141C23.6687 13.612 23.5299 13.7812 23.3517 13.9003C23.1736 14.0193 22.9642 14.0829 22.75 14.0829ZM13 4.7814L6.5 11.2814V16.2496L6.49891 21.6662H19.5V11.2814L13 4.7814Z" fill="#496EE3"/>
<path d="M20.5833 12.4583V21.6667L19.5 22.75H6.50001L5.41668 21.6667V10.8333L13 3.25L20.5833 10.8333V12.4583Z" fill="#496EE3"/>
<path d="M13 19.4999C8.98841 19.4999 7.69057 15.666 7.63749 15.5035L9.69582 14.8307C9.70449 14.8556 10.5419 17.3332 13 17.3332C15.4245 17.3332 16.2717 14.9271 16.3052 14.8242L18.3625 15.5035C18.3094 15.666 17.0116 19.4999 13 19.4999Z" fill="white"/>
</svg>
