<svg width="26" height="26" viewBox="0 0 26 26" fill="none" xmlns="http://www.w3.org/2000/svg">
<path d="M22.8367 7.58299C22.6495 7.25866 22.3814 6.98838 22.0586 6.79852C21.7359 6.60866 21.3694 6.50569 20.995 6.49966H7.12832L6.49999 4.05133C6.43651 3.81498 6.29487 3.6071 6.09816 3.46153C5.90144 3.31596 5.66123 3.24128 5.41666 3.24966H3.24999C2.96267 3.24966 2.68712 3.3638 2.48396 3.56696C2.28079 3.77012 2.16666 4.04567 2.16666 4.33299C2.16666 4.62031 2.28079 4.89586 2.48396 5.09902C2.68712 5.30219 2.96267 5.41633 3.24999 5.41633H4.59332L7.58332 16.5313C7.64681 16.7677 7.78844 16.9756 7.98516 17.1211C8.18187 17.2667 8.42208 17.3414 8.66666 17.333H18.4167C18.6167 17.3324 18.8127 17.2764 18.9829 17.1712C19.1531 17.0661 19.2908 16.9158 19.3808 16.7372L22.9342 9.63049C23.0882 9.30768 23.1599 8.95175 23.1429 8.59448C23.1258 8.23721 23.0206 7.88971 22.8367 7.58299ZM17.745 15.1663H9.48999L7.72416 8.66633H20.995L17.745 15.1663Z" fill="black"/>
<path d="M8.125 22.75C9.02246 22.75 9.75 22.0225 9.75 21.125C9.75 20.2275 9.02246 19.5 8.125 19.5C7.22754 19.5 6.5 20.2275 6.5 21.125C6.5 22.0225 7.22754 22.75 8.125 22.75Z" fill="black"/>
<path d="M18.9583 22.75C19.8558 22.75 20.5833 22.0225 20.5833 21.125C20.5833 20.2275 19.8558 19.5 18.9583 19.5C18.0609 19.5 17.3333 20.2275 17.3333 21.125C17.3333 22.0225 18.0609 22.75 18.9583 22.75Z" fill="black"/>
</svg>
